<svg width="40" height="40" viewBox="0 0 40 40" fill="none" xmlns="http://www.w3.org/2000/svg">
<path d="M32.3295 27.6275C31.8909 27.3629 31.321 27.5042 31.0563 27.9427C29.8159 29.9996 28.0613 31.7212 25.9823 32.9214C23.8405 34.1581 21.393 34.8117 18.9045 34.8117C11.085 34.8117 4.72349 28.4501 4.72349 20.6307C4.72349 16.8694 6.18108 13.3266 8.82754 10.6548C11.0907 8.37007 13.9987 6.94785 17.1445 6.56054C16.1655 8.66723 15.6537 10.9728 15.6537 13.3174C15.6537 16.398 16.5298 19.3905 18.1872 21.9714C19.8003 24.4836 22.0729 26.4928 24.7589 27.7821C25.2206 28.0036 25.7748 27.8091 25.9964 27.3472C26.218 26.8854 26.0233 26.3314 25.5615 26.1097C23.1856 24.9694 21.1753 23.1918 19.7479 20.9691C18.2829 18.6878 17.5087 16.042 17.5087 13.3174C17.5087 10.7348 18.2103 8.20634 19.5378 6.0053C19.7114 5.7173 19.7156 5.35794 19.5488 5.06598C19.382 4.77401 19.0707 4.59062 18.7339 4.59891C14.4863 4.64343 10.5002 6.33053 7.50969 9.34946C4.51685 12.371 2.86858 16.3774 2.86858 20.6307C2.86858 29.4729 10.0622 36.6666 18.9044 36.6666C21.7181 36.6666 24.4862 35.9271 26.9096 34.5279C29.2594 33.1712 31.2426 31.2253 32.6446 28.9007C32.9093 28.4621 32.7682 27.892 32.3295 27.6275Z" fill="#AAAAAA"/>
<path d="M36.2039 5.88167H34.5831V4.26072C34.5831 3.74852 34.1679 3.33327 33.6557 3.33327C33.1435 3.33327 32.7282 3.74852 32.7282 4.26072V5.88155H31.1074C30.5952 5.88155 30.1799 6.2968 30.1799 6.809C30.1799 7.32121 30.5952 7.73646 31.1074 7.73646H32.7282V9.35728C32.7282 9.86949 33.1435 10.2847 33.6557 10.2847C34.1679 10.2847 34.5831 9.86949 34.5831 9.35728V7.73658H36.2039C36.7161 7.73658 37.1314 7.32133 37.1314 6.80913C37.1314 6.29692 36.7161 5.88167 36.2039 5.88167Z" fill="#AAAAAA"/>
<path d="M25.6177 18.5734H27.2386V20.1942C27.2386 20.7064 27.6538 21.1217 28.166 21.1217C28.6782 21.1217 29.0935 20.7064 29.0935 20.1942V18.5734H30.7143C31.2265 18.5734 31.6418 18.1582 31.6418 17.646C31.6418 17.1338 31.2265 16.7185 30.7143 16.7185H29.0935V15.0977C29.0935 14.5855 28.6782 14.1702 28.166 14.1702C27.6538 14.1702 27.2386 14.5855 27.2386 15.0977V16.7185H25.6177C25.1055 16.7185 24.6903 17.1338 24.6903 17.646C24.6903 18.1582 25.1055 18.5734 25.6177 18.5734Z" fill="#AAAAAA"/>
</svg>
